# xmcd CD database file
#
# Track frame offsets:
#	150
#	10290
#	27852
#	36785
#	44737
#	58905
#	66645
#	78345
#	91240
#	105837
#	119079
#	138467
#	150562
#	159615
#	167225
#
# Disc length: 2413 seconds
#
# Revision: 0
# Processed by: cddbd v1.5.2PL0 Copyright (c) Steve Scherf et al.
# Submitted via: CDex 1.70
#
DISCID=cc096b0f
DTITLE=Jowaisas, Greg - Adkisson, Steve - Bunch, Jack - Old Time Banjo Pieces
DYEAR=1988
DGENRE=Country
TTITLE0=Cumberland Gap
TTITLE1=Marty's Revenge - Rocky Mountain Goat
TTITLE2=Coal Creek March
TTITLE3=Harlan County Farewell Tune
TTITLE4=Bunch of Roses
TTITLE5=Last Pay Day at Coal Creek
TTITLE6=Little Dog Branch
TTITLE7=Briarpicker Brown
TTITLE8=Liza Jane
TTITLE9=My Old Kentucky Home
TTITLE10=Valley Forge
TTITLE11=New Money
TTITLE12=Not a Flower on Dogwood Flats
TTITLE13=Shortnin' Bread
TTITLE14=Saturday Night at the Loder House
EXTD=YEAR: 1988
EXTT0=
EXTT1=
EXTT2=
EXTT3=
EXTT4=
EXTT5=
EXTT6=
EXTT7=
EXTT8=
EXTT9=
EXTT10=
EXTT11=
EXTT12=
EXTT13=
EXTT14=
PLAYORDER=
